<svg width="16" height="16" viewBox="0 0 16 16" fill="none" xmlns="http://www.w3.org/2000/svg">
    <path d="M0 5.00001C0.000244156 6.15722 0.401714 7.27854 1.13601 8.17293C1.8703 9.06732 2.89199 9.67945 4.027 9.90501C4.09164 9.18854 4.27551 8.4879 4.571 7.83201C3.695 7.53601 3.132 6.86401 3 5.91001H2.5V5.48401H2.966V5.05001C2.966 5.00401 2.966 4.95701 2.97 4.91501H2.5V4.48801H3.011C3.236 3.24001 4.213 2.50001 5.681 2.50001C5.997 2.50001 6.271 2.53101 6.5 2.58501V3.31801C6.23254 3.2585 5.95896 3.23098 5.685 3.23601C4.766 3.23601 4.147 3.70201 3.951 4.48801H5.868V4.91501H3.888C3.885 4.96101 3.885 5.01201 3.885 5.06201V5.48401H5.868V5.91101H3.93C4.048 6.51301 4.398 6.94101 4.935 7.14001C5.46154 6.26797 6.18567 5.5319 7.04897 4.99116C7.91228 4.45042 8.89059 4.12016 9.905 4.02701C9.65975 2.81252 8.97248 1.73228 7.97633 0.995525C6.98017 0.258772 5.74603 -0.0820503 4.51296 0.0390779C3.27989 0.160206 2.13566 0.734664 1.30191 1.65117C0.468163 2.56768 0.00423697 3.76102 0 5.00001ZM16 10.5C16 11.9587 15.4205 13.3576 14.3891 14.3891C13.3576 15.4206 11.9587 16 10.5 16C9.04131 16 7.64236 15.4206 6.61091 14.3891C5.57946 13.3576 5 11.9587 5 10.5C5 9.04132 5.57946 7.64237 6.61091 6.61092C7.64236 5.57947 9.04131 5.00001 10.5 5.00001C11.9587 5.00001 13.3576 5.57947 14.3891 6.61092C15.4205 7.64237 16 9.04132 16 10.5ZM8.25 11.822C8.319 12.657 8.996 13.307 10.214 13.384V14H10.754V13.38C12.013 13.294 12.75 12.64 12.75 11.69C12.75 10.825 12.187 10.38 11.18 10.15L10.754 10.05V8.37401C11.294 8.43401 11.638 8.72101 11.72 9.11901H12.668C12.598 8.31501 11.889 7.68601 10.754 7.61701V7.00001H10.214V7.62901C9.138 7.73201 8.406 8.36101 8.406 9.25101C8.406 10.038 8.95 10.539 9.856 10.744L10.214 10.829V12.609C9.66 12.529 9.294 12.233 9.211 11.822H8.25ZM10.21 9.92701C9.678 9.80701 9.39 9.56301 9.39 9.19501C9.39 8.78501 9.701 8.47601 10.214 8.38601V9.92601H10.209L10.21 9.92701ZM10.832 10.971C11.477 11.116 11.775 11.351 11.775 11.767C11.775 12.241 11.405 12.567 10.755 12.627V10.953L10.832 10.971Z" fill="currentColor"/>
</svg>
