<svg width="20" height="20" viewBox="0 0 20 20" fill="none" xmlns="http://www.w3.org/2000/svg">
  <path d="M11 4C11 5.06087 11.4214 6.07828 12.1716 6.82843C12.9217 7.57857 13.9391 8 15 8C16.0609 8 17.0783 7.57857 17.8284 6.82843C18.5786 6.07828 19 5.06087 19 4C19 2.93913 18.5786 1.92172 17.8284 1.17157C17.0783 0.421427 16.0609 0 15 0C13.9391 0 12.9217 0.421427 12.1716 1.17157C11.4214 1.92172 11 2.93913 11 4ZM13.952 5.4015C13.9289 5.42538 13.9014 5.44442 13.8709 5.45753C13.8404 5.47063 13.8075 5.47752 13.7744 5.47781C13.7412 5.4781 13.7082 5.47178 13.6775 5.45921C13.6468 5.44664 13.6189 5.42807 13.5954 5.4046C13.5719 5.38113 13.5534 5.35321 13.5408 5.32249C13.5282 5.29176 13.5219 5.25884 13.5222 5.22565C13.5225 5.19245 13.5294 5.15965 13.5425 5.12915C13.5556 5.09865 13.5746 5.07106 13.5985 5.048L15.6465 3H14.2625C14.1962 3 14.1326 2.97366 14.0857 2.92678C14.0388 2.87989 14.0125 2.8163 14.0125 2.75C14.0125 2.6837 14.0388 2.62011 14.0857 2.57322C14.1326 2.52634 14.1962 2.5 14.2625 2.5H16.25C16.3163 2.5 16.3799 2.52634 16.4268 2.57322C16.4737 2.62011 16.5 2.6837 16.5 2.75V4.7375C16.5 4.8038 16.4737 4.86739 16.4268 4.91428C16.3799 4.96116 16.3163 4.9875 16.25 4.9875C16.1837 4.9875 16.1201 4.96116 16.0732 4.91428C16.0263 4.86739 16 4.8038 16 4.7375V3.3535L13.952 5.4015Z" fill="currentColor"/>
  <path fill-rule="evenodd" clip-rule="evenodd" d="M11 19C12.0609 19 13.0783 18.5786 13.8284 17.8284C14.5786 17.0783 15 16.0609 15 15C15 13.9391 14.5786 12.9217 13.8284 12.1716C13.0783 11.4214 12.0609 11 11 11C9.93913 11 8.92172 11.4214 8.17157 12.1716C7.42143 12.9217 7 13.9391 7 15C7 16.0609 7.42143 17.0783 8.17157 17.8284C8.92172 18.5786 9.93913 19 11 19ZM16 15C16 16.3261 15.4732 17.5979 14.5355 18.5355C13.5979 19.4732 12.3261 20 11 20C9.67392 20 8.40215 19.4732 7.46447 18.5355C6.52678 17.5979 6 16.3261 6 15C6 13.6739 6.52678 12.4021 7.46447 11.4645C8.40215 10.5268 9.67392 10 11 10C12.3261 10 13.5979 10.5268 14.5355 11.4645C15.4732 12.4021 16 13.6739 16 15Z" fill="currentColor"/>
  <path d="M9.7508 15.944C9.7884 16.54 10.1652 17.004 10.8412 17.06V17.5H11.1412V17.057C11.8412 16.996 12.25 16.528 12.25 15.85C12.25 15.232 11.938 14.914 11.378 14.75L11.1412 14.68V13.48C11.442 13.523 11.6324 13.728 11.678 14.012H12.2044C12.1668 13.437 11.7724 12.988 11.1412 12.939V12.5H10.8412V12.95C10.2436 13.023 9.8372 13.472 9.8372 14.108C9.8372 14.67 10.1396 15.028 10.6428 15.174L10.8412 15.235V16.507C10.534 16.449 10.33 16.237 10.2844 15.944H9.7508ZM10.8388 14.59C10.5436 14.505 10.3836 14.33 10.3836 14.068C10.3836 13.774 10.5564 13.554 10.8412 13.49V14.59H10.8388ZM11.1844 15.336C11.5436 15.44 11.7084 15.608 11.7084 15.905C11.7084 16.244 11.5028 16.476 11.1412 16.519V15.324L11.1844 15.336Z" fill="currentColor"/>
  <path d="M1.9375 5C1.68886 5 1.4504 5.09219 1.27459 5.25628C1.09877 5.42038 1 5.64294 1 5.875L1 12.875C1 13.1071 1.09877 13.3296 1.27459 13.4937C1.4504 13.6578 1.68886 13.75 1.9375 13.75H5.76531C5.81969 13.449 5.90125 13.1567 6.00719 12.875H3.8125C3.8125 12.4109 3.61496 11.9658 3.26333 11.6376C2.91169 11.3094 2.43478 11.125 1.9375 11.125V7.625C2.43478 7.625 2.91169 7.44063 3.26333 7.11244C3.61496 6.78425 3.8125 6.33913 3.8125 5.875H13.1875C13.1875 6.33913 13.385 6.78425 13.7367 7.11244C14.0883 7.44063 14.5652 7.625 15.0625 7.625V10.712C15.4187 11.0095 15.7347 11.349 16 11.7217V7.625C16 7.39294 14.3008 7.27653 14.125 7.11244C13.9492 6.94834 13.4361 5 13.1875 5L1.9375 5Z" fill="currentColor"/>
  <path d="M9.74813 9.63954L9.75 9.55424C9.74981 9.20028 9.66624 8.85237 9.50739 8.54422C9.34853 8.23606 9.11978 7.97809 8.84329 7.7953C8.56679 7.61251 8.25192 7.51108 7.92917 7.50086C7.60642 7.49063 7.28674 7.57195 7.00107 7.73692C6.71541 7.9019 6.47344 8.14496 6.29862 8.44254C6.1238 8.74013 6.02204 9.08216 6.0032 9.43552C5.98435 9.78888 6.04907 10.1416 6.19108 10.4595C6.33308 10.7774 6.54756 11.0497 6.81375 11.25C7.62352 10.4045 8.6454 9.84362 9.74813 9.63954Z" fill="currentColor"/>
</svg>