<svg width="10" height="10" viewBox="0 0 10 10" fill="none" xmlns="http://www.w3.org/2000/svg">
    <path fill-rule="evenodd" clip-rule="evenodd" d="M5.3975 2.1875C5.3975 2.10462 5.36458 2.02513 5.30597 1.96653C5.24737 1.90792 5.16788 1.875 5.085 1.875H0.9375C0.68886 1.875 0.450403 1.97377 0.274587 2.14959C0.098772 2.3254 0 2.56386 0 2.8125L0 9.0625C0 9.31114 0.098772 9.5496 0.274587 9.72541C0.450403 9.90123 0.68886 10 0.9375 10H7.1875C7.43614 10 7.6746 9.90123 7.85041 9.72541C8.02623 9.5496 8.125 9.31114 8.125 9.0625V4.915C8.125 4.83212 8.09208 4.75263 8.03347 4.69403C7.97487 4.63542 7.89538 4.6025 7.8125 4.6025C7.72962 4.6025 7.65013 4.63542 7.59153 4.69403C7.53292 4.75263 7.5 4.83212 7.5 4.915V9.0625C7.5 9.14538 7.46708 9.22487 7.40847 9.28347C7.34987 9.34208 7.27038 9.375 7.1875 9.375H0.9375C0.85462 9.375 0.775134 9.34208 0.716529 9.28347C0.657924 9.22487 0.625 9.14538 0.625 9.0625V2.8125C0.625 2.72962 0.657924 2.65013 0.716529 2.59153C0.775134 2.53292 0.85462 2.5 0.9375 2.5H5.085C5.16788 2.5 5.24737 2.46708 5.30597 2.40847C5.36458 2.34987 5.3975 2.27038 5.3975 2.1875Z" fill="currentColor"/>
    <path fill-rule="evenodd" clip-rule="evenodd" d="M9.99991 0.3125C9.99991 0.22962 9.96698 0.150134 9.90838 0.0915291C9.84977 0.032924 9.77029 0 9.68741 0L6.56241 0C6.47953 0 6.40004 0.032924 6.34144 0.0915291C6.28283 0.150134 6.24991 0.22962 6.24991 0.3125C6.24991 0.39538 6.28283 0.474866 6.34144 0.533471C6.40004 0.592076 6.47953 0.625 6.56241 0.625H8.93303L3.84116 5.71625C3.8121 5.74531 3.78905 5.7798 3.77333 5.81776C3.75761 5.85572 3.74951 5.89641 3.74951 5.9375C3.74951 5.97859 3.75761 6.01928 3.77333 6.05724C3.78905 6.0952 3.8121 6.12969 3.84116 6.15875C3.87021 6.18781 3.9047 6.21085 3.94267 6.22658C3.98063 6.2423 4.02132 6.25039 4.06241 6.25039C4.1035 6.25039 4.14418 6.2423 4.18215 6.22658C4.22011 6.21085 4.2546 6.18781 4.28366 6.15875L9.37491 1.06687V3.4375C9.37491 3.52038 9.40783 3.59987 9.46644 3.65847C9.52504 3.71708 9.60453 3.75 9.68741 3.75C9.77029 3.75 9.84977 3.71708 9.90838 3.65847C9.96698 3.59987 9.99991 3.52038 9.99991 3.4375V0.3125Z" fill="currentColor"/>
</svg>
