<svg width="16" height="17" viewBox="0 0 16 17" fill="none" xmlns="http://www.w3.org/2000/svg">
    <path d="M7.99991 5.254C7.57364 5.254 7.15154 5.33796 6.75772 5.50108C6.36389 5.66421 6.00606 5.90331 5.70464 6.20473C5.40322 6.50615 5.16412 6.86398 5.00099 7.25781C4.83787 7.65163 4.75391 8.07373 4.75391 8.5C4.75391 8.92627 4.83787 9.34837 5.00099 9.74219C5.16412 10.136 5.40322 10.4938 5.70464 10.7953C6.00606 11.0967 6.36389 11.3358 6.75772 11.4989C7.15154 11.662 7.57364 11.746 7.99991 11.746C8.8608 11.746 9.68643 11.404 10.2952 10.7953C10.9039 10.1865 11.2459 9.36089 11.2459 8.5C11.2459 7.6391 10.9039 6.81347 10.2952 6.20473C9.68643 5.59599 8.8608 5.254 7.99991 5.254ZM5.75391 8.5C5.75391 7.90432 5.99054 7.33304 6.41174 6.91184C6.83295 6.49063 7.40423 6.254 7.99991 6.254C8.59558 6.254 9.16686 6.49063 9.58807 6.91184C10.0093 7.33304 10.2459 7.90432 10.2459 8.5C10.2459 9.09567 10.0093 9.66695 9.58807 10.0882C9.16686 10.5094 8.59558 10.746 7.99991 10.746C7.40423 10.746 6.83295 10.5094 6.41174 10.0882C5.99054 9.66695 5.75391 9.09567 5.75391 8.5Z" fill="currentColor"/>
    <path d="M9.79599 1.84299C9.26899 0.0529883 6.73099 0.0529883 6.20399 1.84299L6.10999 2.16199C6.07318 2.28694 6.00889 2.40207 5.9218 2.49895C5.83472 2.59582 5.72707 2.67198 5.60673 2.72184C5.48639 2.7717 5.35642 2.794 5.22634 2.78711C5.09627 2.78021 4.96938 2.74429 4.85499 2.68199L4.56299 2.52199C2.92299 1.62999 1.12999 3.42399 2.02299 5.06299L2.18199 5.35499C2.24429 5.46938 2.28021 5.59627 2.28711 5.72634C2.294 5.85642 2.2717 5.98639 2.22184 6.10673C2.17198 6.22707 2.09582 6.33472 1.99895 6.4218C1.90207 6.50889 1.78694 6.57318 1.66199 6.60999L1.34299 6.70399C-0.447012 7.23099 -0.447012 9.76899 1.34299 10.296L1.66199 10.39C1.78694 10.4268 1.90207 10.4911 1.99895 10.5782C2.09582 10.6653 2.17198 10.7729 2.22184 10.8932C2.2717 11.0136 2.294 11.1436 2.28711 11.2736C2.28021 11.4037 2.24429 11.5306 2.18199 11.645L2.02199 11.937C1.12999 13.577 2.92299 15.371 4.56299 14.477L4.85499 14.318C4.96938 14.2557 5.09627 14.2198 5.22634 14.2129C5.35642 14.206 5.48639 14.2283 5.60673 14.2781C5.72707 14.328 5.83472 14.4042 5.9218 14.501C6.00889 14.5979 6.07318 14.713 6.10999 14.838L6.20399 15.157C6.73099 16.947 9.26899 16.947 9.79599 15.157L9.88999 14.838C9.92679 14.713 9.99109 14.5979 10.0782 14.501C10.1653 14.4042 10.2729 14.328 10.3932 14.2781C10.5136 14.2283 10.6436 14.206 10.7736 14.2129C10.9037 14.2198 11.0306 14.2557 11.145 14.318L11.437 14.478C13.077 15.371 14.871 13.576 13.977 11.937L13.818 11.645C13.7557 11.5306 13.7198 11.4037 13.7129 11.2736C13.706 11.1436 13.7283 11.0136 13.7781 10.8932C13.828 10.7729 13.9042 10.6653 14.001 10.5782C14.0979 10.4911 14.213 10.4268 14.338 10.39L14.657 10.296C16.447 9.76899 16.447 7.23099 14.657 6.70399L14.338 6.60999C14.213 6.57318 14.0979 6.50889 14.001 6.4218C13.9042 6.33472 13.828 6.22707 13.7781 6.10673C13.7283 5.98639 13.706 5.85642 13.7129 5.72634C13.7198 5.59627 13.7557 5.46938 13.818 5.35499L13.978 5.06299C14.871 3.42299 13.076 1.62999 11.437 2.52299L11.145 2.68199C11.0306 2.74429 10.9037 2.78021 10.7736 2.78711C10.6436 2.794 10.5136 2.7717 10.3932 2.72184C10.2729 2.67198 10.1653 2.59582 10.0782 2.49895C9.99109 2.40207 9.92679 2.28694 9.88999 2.16199L9.79599 1.84299ZM7.16299 2.12599C7.40899 1.29099 8.59099 1.29099 8.83699 2.12599L8.93099 2.44499C9.01001 2.71307 9.14802 2.96008 9.33491 3.16789C9.5218 3.3757 9.75283 3.53905 10.0111 3.64597C10.2693 3.75288 10.5482 3.80066 10.8273 3.78578C11.1064 3.7709 11.3786 3.69375 11.624 3.55999L11.915 3.39999C12.679 2.98499 13.515 3.81999 13.099 4.58499L12.94 4.87699C12.8064 5.12242 12.7295 5.39462 12.7148 5.67364C12.7 5.95267 12.7479 6.23146 12.8549 6.48957C12.9619 6.74769 13.1253 6.97859 13.3332 7.16536C13.541 7.35214 13.788 7.49005 14.056 7.56899L14.374 7.66299C15.209 7.90899 15.209 9.09099 14.374 9.33699L14.055 9.43099C13.7869 9.51001 13.5399 9.64802 13.3321 9.83491C13.1243 10.0218 12.9609 10.2528 12.854 10.5111C12.7471 10.7693 12.6993 11.0482 12.7142 11.3273C12.7291 11.6064 12.8062 11.8786 12.94 12.124L13.1 12.415C13.515 13.179 12.68 14.015 11.915 13.599L11.624 13.44C11.3785 13.3062 11.1062 13.2291 10.8271 13.2143C10.5479 13.1995 10.269 13.2474 10.0108 13.3544C9.75253 13.4614 9.52151 13.6249 9.33467 13.8328C9.14783 14.0407 9.00989 14.2878 8.93099 14.556L8.83699 14.874C8.59099 15.709 7.40899 15.709 7.16299 14.874L7.06899 14.555C6.98993 14.287 6.85194 14.0402 6.66512 13.8325C6.4783 13.6248 6.24738 13.4615 5.98928 13.3546C5.73118 13.2477 5.45243 13.1999 5.17346 13.2146C4.89448 13.2294 4.62235 13.3064 4.37699 13.44L4.08499 13.6C3.32099 14.015 2.48499 13.18 2.90099 12.415L3.05999 12.124C3.19394 11.8785 3.27124 11.6062 3.28621 11.327C3.30119 11.0478 3.25346 10.7688 3.14653 10.5104C3.0396 10.2521 2.87618 10.0209 2.66827 9.83397C2.46035 9.64701 2.21321 9.50897 1.94499 9.42999L1.62599 9.33599C0.790988 9.08999 0.790988 7.90799 1.62599 7.66199L1.94499 7.56799C2.21279 7.4889 2.45953 7.35093 2.66713 7.16418C2.87473 6.97742 3.03795 6.74662 3.14484 6.48864C3.25173 6.23067 3.29959 5.95206 3.2849 5.67321C3.27022 5.39435 3.19338 5.12231 3.05999 4.87699L2.89999 4.58499C2.48499 3.82099 3.31999 2.98499 4.08499 3.40099L4.37699 3.55999C4.62235 3.69356 4.89448 3.77056 5.17346 3.78534C5.45243 3.80012 5.73118 3.75231 5.98928 3.6454C6.24738 3.5385 6.4783 3.37522 6.66512 3.16751C6.85194 2.9598 6.98993 2.71293 7.06899 2.44499L7.16299 2.12599Z" fill="currentColor"/>
</svg>
