<svg width="16" height="17" viewBox="0 0 16 17" fill="none" xmlns="http://www.w3.org/2000/svg">
    <path fill-rule="evenodd" clip-rule="evenodd" d="M4.5 12C4.5 11.8674 4.55268 11.7402 4.64645 11.6464C4.74021 11.5527 4.86739 11.5 5 11.5H15C15.1326 11.5 15.2598 11.5527 15.3536 11.6464C15.4473 11.7402 15.5 11.8674 15.5 12C15.5 12.1326 15.4473 12.2598 15.3536 12.3536C15.2598 12.4473 15.1326 12.5 15 12.5H5C4.86739 12.5 4.74021 12.4473 4.64645 12.3536C4.55268 12.2598 4.5 12.1326 4.5 12ZM2.5 8C2.5 7.86739 2.55268 7.74021 2.64645 7.64645C2.74021 7.55268 2.86739 7.5 3 7.5H13C13.1326 7.5 13.2598 7.55268 13.3536 7.64645C13.4473 7.74021 13.5 7.86739 13.5 8C13.5 8.13261 13.4473 8.25979 13.3536 8.35355C13.2598 8.44732 13.1326 8.5 13 8.5H3C2.86739 8.5 2.74021 8.44732 2.64645 8.35355C2.55268 8.25979 2.5 8.13261 2.5 8ZM0.5 4C0.5 3.86739 0.552678 3.74021 0.646447 3.64645C0.740215 3.55268 0.867392 3.5 1 3.5H11C11.1326 3.5 11.2598 3.55268 11.3536 3.64645C11.4473 3.74021 11.5 3.86739 11.5 4C11.5 4.13261 11.4473 4.25979 11.3536 4.35355C11.2598 4.44732 11.1326 4.5 11 4.5H1C0.867392 4.5 0.740215 4.44732 0.646447 4.35355C0.552678 4.25979 0.5 4.13261 0.5 4Z" fill="currentColor"/>
</svg>
