<svg width="35" height="35" viewBox="0 0 35 35" fill="none" xmlns="http://www.w3.org/2000/svg">
<path d="M7.92267 32.0661C8.43862 31.9513 9.4751 32.1316 10.0403 32.166C10.6702 32.2036 11.3006 32.218 11.9315 32.2093C14.9345 32.1599 18.0367 31.4983 20.9122 30.6573C23.9405 29.7717 27.1014 28.4577 29.8781 26.9556C30.4673 26.6369 31.0424 26.3071 31.6077 25.9473C32.012 25.6901 32.8464 25.026 33.2594 24.8954C33.2849 24.8873 33.3108 24.8805 33.3364 24.873C31.4268 29.0508 27.7444 32.3026 23.4612 33.9045C19.1026 35.5345 14.53 35.3308 10.3026 33.392C9.51989 33.0329 8.59386 32.6059 7.92267 32.0661Z" fill="#C81064"/>
<path d="M0.859477 12.1721C0.941682 11.9088 1.0301 11.6477 1.12474 11.3887C1.21944 11.1297 1.32027 10.8732 1.42723 10.619C1.53425 10.3648 1.64724 10.1134 1.76621 9.86465C1.88523 9.61586 2.01014 9.37008 2.14094 9.12732C2.27174 8.88456 2.40827 8.64506 2.55053 8.40881C2.69273 8.17257 2.84055 7.93985 2.994 7.71066C3.14739 7.48153 3.30618 7.2562 3.47037 7.03466C3.63451 6.81308 3.80389 6.59557 3.97851 6.38212C6.9577 2.79364 11.1181 0.50266 15.7851 0.0802023C15.9973 0.0600038 16.2098 0.0436058 16.4226 0.0310089C16.6353 0.0184663 16.8483 0.00972526 17.0614 0.00478424C17.2745 -0.000156786 17.4876 -0.00127115 17.7008 0.0014437C17.9139 0.00415855 18.1269 0.0107011 18.3399 0.0210718C18.5528 0.0314425 18.7654 0.0456143 18.9777 0.0635866C19.1902 0.0816132 19.4022 0.103414 19.6138 0.128988C19.8254 0.154616 20.0365 0.184019 20.2471 0.217194C20.4576 0.250424 20.6675 0.2874 20.8767 0.328123C21.086 0.368845 21.2944 0.413287 21.5021 0.461448C21.7097 0.509664 21.9164 0.561599 22.1221 0.617253C22.3279 0.672853 22.5326 0.732145 22.7363 0.795129C22.9399 0.858113 23.1423 0.924737 23.3436 0.994997C23.5449 1.06526 23.7448 1.1391 23.9434 1.21653C24.142 1.2939 24.3392 1.37486 24.5348 1.4594C24.7305 1.54388 24.9246 1.63187 25.1172 1.72336C25.3097 1.8148 25.5005 1.90968 25.6897 2.00802C26.2915 2.32248 26.9563 2.67017 27.4785 3.10574C27.2159 3.10289 26.7169 2.69509 26.4826 2.548C25.7833 3.35537 24.867 4.06239 24.0667 4.76885C22.8343 5.85656 21.5551 6.90639 20.179 7.8084C19.9274 7.9708 19.6733 8.12926 19.4167 8.28379C19.1602 8.43838 18.9014 8.58894 18.6402 8.73549C18.3791 8.88209 18.1158 9.02462 17.8502 9.16308C17.5846 9.30153 17.317 9.43586 17.0473 9.56607C16.7776 9.69627 16.506 9.8223 16.2325 9.94414C15.9589 10.066 15.6835 10.1836 15.4063 10.2969C15.1291 10.4103 14.8502 10.5193 14.5697 10.624C14.2891 10.7288 14.007 10.8292 13.7233 10.9252C13.4396 11.0213 13.1546 11.1129 12.8681 11.2002C12.5816 11.2874 12.2939 11.3703 12.0049 11.4487C11.7158 11.5271 11.4256 11.601 11.1343 11.6705C10.843 11.7399 10.5507 11.8048 10.2574 11.8653C9.96407 11.9257 9.66989 11.9816 9.37484 12.033C9.07979 12.0843 8.78404 12.1311 8.48757 12.1734C8.19106 12.2156 7.894 12.2533 7.5964 12.2863C7.29874 12.3195 7.00065 12.348 6.70213 12.3719C5.4701 12.4594 1.90768 12.5052 0.859477 12.1721Z" fill="url(#paint0_linear_48_305)"/>
<path d="M34.0637 11.9135C34.7514 13.6598 34.9859 15.8361 34.9779 17.7034C34.9572 20.3042 34.3809 22.5031 33.3364 24.873C33.3108 24.8805 33.2849 24.8873 33.2594 24.8954C32.8464 25.026 32.012 25.6901 31.6077 25.9473C31.0424 26.3071 30.4673 26.6369 29.8781 26.9556C27.1014 28.4577 23.9405 29.7717 20.9122 30.6573C18.0367 31.4983 14.9345 32.1599 11.9315 32.2093C11.3006 32.218 10.6702 32.2036 10.0403 32.166C9.4751 32.1316 8.43862 31.9513 7.92267 32.0661C7.54387 31.8719 7.18551 31.5872 6.84873 31.3261C6.50563 31.0628 6.1726 30.7874 5.84964 30.4997C5.52662 30.2122 5.21453 29.9132 4.91334 29.6029C4.61216 29.2925 4.32267 28.9716 4.04489 28.6401C3.76711 28.3086 3.50178 27.9675 3.24892 27.6167C2.92428 27.2458 2.66805 26.7815 2.42592 26.3525C1.6789 25.029 1.09331 23.7072 0.670767 22.2471C2.64785 22.8286 5.20947 22.9765 7.26247 22.9363C7.49584 22.9305 7.72915 22.9227 7.96241 22.9128C8.19567 22.9028 8.4288 22.8908 8.66178 22.8768C8.89483 22.8628 9.12773 22.8467 9.3605 22.8285C9.59322 22.8103 9.82578 22.7901 10.0582 22.7679C10.2906 22.7456 10.5227 22.7213 10.7547 22.6949C10.9866 22.6685 11.2184 22.6401 11.4498 22.6096C11.6813 22.5792 11.9125 22.5467 12.1433 22.5121C12.3742 22.4776 12.6047 22.441 12.835 22.4024C13.0652 22.3637 13.2951 22.323 13.5246 22.2804C13.7542 22.2377 13.9833 22.193 14.212 22.1462C14.4407 22.0995 14.669 22.0507 14.8968 21.9999C15.1247 21.9492 15.3521 21.8964 15.5791 21.8416C15.806 21.7868 16.0324 21.73 16.2584 21.6712C16.4843 21.6124 16.7097 21.5516 16.9345 21.4889C17.1594 21.4261 17.3836 21.3613 17.6073 21.2946C17.8311 21.2278 18.0542 21.1591 18.2767 21.0885C18.4992 21.0178 18.721 20.9451 18.9422 20.8705C19.1634 20.7959 19.384 20.7194 19.6038 20.6409C19.8237 20.5623 20.0429 20.4819 20.2612 20.3995C20.4797 20.3172 20.6974 20.2329 20.9144 20.1466C21.1313 20.0604 21.3475 19.9723 21.5628 19.8822C21.7782 19.7922 21.9928 19.7002 22.2066 19.6064C22.4203 19.5125 22.6333 19.4168 22.8453 19.3192C23.0574 19.2216 23.2686 19.1221 23.4789 19.0208C23.6892 18.9195 23.8986 18.8163 24.1071 18.7112C24.3156 18.6062 24.5231 18.4994 24.7297 18.3907C24.9363 18.282 25.142 18.1715 25.3466 18.0591C25.5513 17.9468 25.7549 17.8326 25.9575 17.7167C26.1602 17.6008 26.3618 17.4831 26.5624 17.3636C26.7629 17.2441 26.9623 17.1228 27.1607 16.9998C27.3591 16.8767 27.5564 16.752 27.7527 16.6255C27.9489 16.499 28.1439 16.3708 28.3379 16.2408C29.7058 15.3309 31.0258 14.3561 32.2979 13.3165C32.6117 13.0603 33.7185 12.0353 33.9972 11.9353C34.0192 11.9274 34.0416 11.9207 34.0637 11.9135Z" fill="#FE4075"/>
<path d="M26.4826 2.548C26.7169 2.69509 27.2159 3.10289 27.4785 3.10574C28.5999 3.67146 30.5504 5.69 31.2928 6.71768C32.4691 8.31596 33.4478 10.0176 34.0637 11.9135C34.0416 11.9207 34.0192 11.9274 33.9972 11.9353C33.7185 12.0353 32.6117 13.0603 32.2979 13.3165C31.0258 14.3561 29.7058 15.3309 28.3379 16.2408C28.1439 16.3708 27.9489 16.499 27.7527 16.6255C27.5564 16.752 27.3591 16.8767 27.1607 16.9998C26.9623 17.1228 26.7629 17.2441 26.5624 17.3636C26.3618 17.4831 26.1602 17.6008 25.9575 17.7167C25.7549 17.8326 25.5513 17.9468 25.3466 18.0591C25.142 18.1715 24.9363 18.282 24.7297 18.3907C24.5231 18.4994 24.3156 18.6062 24.1071 18.7112C23.8986 18.8163 23.6892 18.9195 23.4789 19.0208C23.2686 19.1221 23.0574 19.2216 22.8453 19.3192C22.6333 19.4168 22.4203 19.5125 22.2066 19.6064C21.9928 19.7002 21.7782 19.7922 21.5628 19.8822C21.3475 19.9723 21.1313 20.0604 20.9144 20.1466C20.6974 20.2329 20.4797 20.3172 20.2612 20.3995C20.0429 20.4819 19.8237 20.5623 19.6038 20.6409C19.384 20.7194 19.1634 20.7959 18.9422 20.8705C18.721 20.9451 18.4992 21.0178 18.2767 21.0885C18.0542 21.1591 17.8311 21.2278 17.6073 21.2946C17.3836 21.3613 17.1594 21.4261 16.9345 21.4889C16.7097 21.5516 16.4843 21.6124 16.2584 21.6712C16.0324 21.73 15.806 21.7868 15.5791 21.8416C15.3521 21.8964 15.1247 21.9492 14.8968 21.9999C14.669 22.0507 14.4407 22.0995 14.212 22.1462C13.9833 22.193 13.7542 22.2377 13.5246 22.2804C13.2951 22.323 13.0652 22.3637 12.835 22.4024C12.6047 22.441 12.3742 22.4776 12.1433 22.5121C11.9125 22.5467 11.6813 22.5792 11.4498 22.6096C11.2184 22.6401 10.9866 22.6685 10.7547 22.6949C10.5227 22.7213 10.2906 22.7456 10.0582 22.7679C9.82578 22.7901 9.59322 22.8103 9.3605 22.8285C9.12773 22.8467 8.89483 22.8628 8.66178 22.8768C8.4288 22.8908 8.19567 22.9028 7.96241 22.9128C7.72915 22.9227 7.49584 22.9305 7.26247 22.9363C5.20947 22.9765 2.64785 22.8286 0.670767 22.2471C0.605393 22.0152 0.544906 21.782 0.489306 21.5475C0.433706 21.313 0.383019 21.0774 0.337247 20.8408C0.291474 20.6042 0.250643 20.3668 0.214753 20.1285C0.178917 19.8902 0.14805 19.6512 0.12215 19.4117C0.0962504 19.1721 0.0753722 18.932 0.0595175 18.6915C0.0436628 18.4511 0.0328316 18.2104 0.0270218 17.9695C0.0211578 17.7286 0.0203711 17.4877 0.0246606 17.2467C0.0288957 17.0057 0.0381512 16.765 0.0524313 16.5244C0.151143 15.0298 0.420242 13.6045 0.859477 12.1721C1.90768 12.5052 5.4701 12.4594 6.70213 12.3719C7.00065 12.348 7.29874 12.3195 7.5964 12.2863C7.894 12.2533 8.19106 12.2156 8.48757 12.1734C8.78404 12.1311 9.07979 12.0843 9.37484 12.033C9.66989 11.9816 9.96407 11.9257 10.2574 11.8653C10.5507 11.8048 10.843 11.7399 11.1343 11.6705C11.4256 11.601 11.7158 11.5271 12.0049 11.4487C12.2939 11.3703 12.5816 11.2874 12.8681 11.2002C13.1546 11.1129 13.4396 11.0213 13.7233 10.9252C14.007 10.8292 14.2891 10.7288 14.5697 10.624C14.8502 10.5193 15.1291 10.4103 15.4063 10.2969C15.6835 10.1836 15.9589 10.066 16.2325 9.94414C16.506 9.8223 16.7776 9.69627 17.0473 9.56607C17.317 9.43586 17.5846 9.30153 17.8502 9.16308C18.1158 9.02462 18.3791 8.88209 18.6402 8.73549C18.9014 8.58894 19.1602 8.43838 19.4167 8.28379C19.6733 8.12926 19.9274 7.9708 20.179 7.8084C21.5551 6.90639 22.8343 5.85656 24.0667 4.76885C24.867 4.06239 25.7833 3.35537 26.4826 2.548Z" fill="url(#paint1_linear_48_305)"/>
<path d="M26.4826 2.548C26.7169 2.69509 27.2159 3.10289 27.4785 3.10574C28.5999 3.67146 30.5504 5.69 31.2928 6.71768C31.0055 7.19861 29.8406 8.14012 29.3624 8.55777C29.0986 8.79201 28.8313 9.02228 28.5605 9.24859C28.2899 9.4749 28.0159 9.69714 27.7386 9.91531C27.4613 10.1335 27.1808 10.3476 26.8973 10.5575C26.6137 10.7674 26.327 10.9731 26.0373 11.1745C25.7476 11.376 25.455 11.5731 25.1595 11.7658C24.8639 11.9586 24.5656 12.1469 24.2645 12.3309C23.9635 12.5149 23.6597 12.6943 23.3533 12.8693C23.0469 13.0443 22.738 13.2147 22.4266 13.3805C22.1151 13.5463 21.8013 13.7075 21.485 13.864C21.1688 14.0206 20.8504 14.1724 20.5297 14.3196C20.209 14.4666 19.8861 14.609 19.5612 14.7466C19.2363 14.8842 18.9094 15.0169 18.5806 15.1448C18.2517 15.2727 17.9211 15.3957 17.5886 15.5139C17.2562 15.632 16.922 15.7451 16.5862 15.8534C16.2504 15.9616 15.913 16.0649 15.5741 16.1631C15.2352 16.2614 14.8949 16.3547 14.5533 16.4428C10.6126 17.4375 6.55723 17.7508 2.52634 17.1658C1.76124 17.0548 0.841964 16.9465 0.127281 16.6528C0.0894902 16.6059 0.0741772 16.5826 0.0524313 16.5244C0.151143 15.0298 0.420242 13.6045 0.859477 12.1721C1.90768 12.5052 5.4701 12.4594 6.70213 12.3719C7.00065 12.348 7.29874 12.3195 7.5964 12.2863C7.894 12.2533 8.19106 12.2156 8.48757 12.1734C8.78404 12.1311 9.07979 12.0843 9.37484 12.033C9.66989 11.9816 9.96407 11.9257 10.2574 11.8653C10.5507 11.8048 10.843 11.7399 11.1343 11.6705C11.4256 11.601 11.7158 11.5271 12.0049 11.4487C12.2939 11.3703 12.5816 11.2874 12.8681 11.2002C13.1546 11.1129 13.4396 11.0213 13.7233 10.9252C14.007 10.8292 14.2891 10.7288 14.5697 10.624C14.8502 10.5193 15.1291 10.4103 15.4063 10.2969C15.6835 10.1836 15.9589 10.066 16.2325 9.94414C16.506 9.8223 16.7776 9.69627 17.0473 9.56607C17.317 9.43586 17.5846 9.30153 17.8502 9.16308C18.1158 9.02462 18.3791 8.88209 18.6402 8.73549C18.9014 8.58894 19.1602 8.43838 19.4167 8.28379C19.6733 8.12926 19.9274 7.9708 20.179 7.8084C21.5551 6.90639 22.8343 5.85656 24.0667 4.76885C24.867 4.06239 25.7833 3.35537 26.4826 2.548Z" fill="#FE7150"/>
<defs>
<linearGradient id="paint0_linear_48_305" x1="17.7466" y1="30.9139" x2="7.03813" y2="5.38754" gradientUnits="userSpaceOnUse">
<stop stop-color="#FC7A64"/>
<stop offset="1" stop-color="#F8AB68"/>
</linearGradient>
<linearGradient id="paint1_linear_48_305" x1="18.7038" y1="32.0144" x2="12.3544" y2="14.6396" gradientUnits="userSpaceOnUse">
<stop stop-color="#FE566B"/>
<stop offset="1" stop-color="#FB766C"/>
</linearGradient>
</defs>
</svg>
