<svg width="16" height="17" viewBox="0 0 16 17" fill="none" xmlns="http://www.w3.org/2000/svg">
    <path d="M8 5.5C8.19698 5.5 8.39204 5.4612 8.57403 5.38582C8.75601 5.31044 8.92137 5.19995 9.06066 5.06066C9.19995 4.92137 9.31044 4.75601 9.38582 4.57403C9.4612 4.39204 9.5 4.19698 9.5 4C9.5 3.80302 9.4612 3.60796 9.38582 3.42597C9.31044 3.24399 9.19995 3.07863 9.06066 2.93934C8.92137 2.80005 8.75601 2.68956 8.57403 2.61418C8.39204 2.5388 8.19698 2.5 8 2.5C7.60218 2.5 7.22064 2.65804 6.93934 2.93934C6.65804 3.22064 6.5 3.60218 6.5 4C6.5 4.39782 6.65804 4.77936 6.93934 5.06066C7.22064 5.34196 7.60218 5.5 8 5.5ZM12 8.5C12.3978 8.5 12.7794 8.34196 13.0607 8.06066C13.342 7.77936 13.5 7.39782 13.5 7C13.5 6.60218 13.342 6.22064 13.0607 5.93934C12.7794 5.65804 12.3978 5.5 12 5.5C11.6022 5.5 11.2206 5.65804 10.9393 5.93934C10.658 6.22064 10.5 6.60218 10.5 7C10.5 7.39782 10.658 7.77936 10.9393 8.06066C11.2206 8.34196 11.6022 8.5 12 8.5ZM5.5 7.5C5.5 7.89782 5.34196 8.27936 5.06066 8.56066C4.77936 8.84196 4.39782 9 4 9C3.60218 9 3.22064 8.84196 2.93934 8.56066C2.65804 8.27936 2.5 7.89782 2.5 7.5C2.5 7.10218 2.65804 6.72064 2.93934 6.43934C3.22064 6.15804 3.60218 6 4 6C4.39782 6 4.77936 6.15804 5.06066 6.43934C5.34196 6.72064 5.5 7.10218 5.5 7.5ZM6 13.5C6.39782 13.5 6.77936 13.342 7.06066 13.0607C7.34196 12.7794 7.5 12.3978 7.5 12C7.5 11.6022 7.34196 11.2206 7.06066 10.9393C6.77936 10.658 6.39782 10.5 6 10.5C5.60218 10.5 5.22064 10.658 4.93934 10.9393C4.65804 11.2206 4.5 11.6022 4.5 12C4.5 12.3978 4.65804 12.7794 4.93934 13.0607C5.22064 13.342 5.60218 13.5 6 13.5Z" fill="currentColor"/>
    <path d="M16 8.5C16 11.65 14.134 11.085 12.433 10.57C11.42 10.263 10.465 9.973 10 10.5C9.397 11.183 9.525 12.319 9.649 13.42C9.826 14.995 9.996 16.5 8 16.5C6.41775 16.5 4.87103 16.0308 3.55544 15.1518C2.23985 14.2727 1.21447 13.0233 0.608967 11.5615C0.00346625 10.0997 -0.15496 8.49113 0.153721 6.93928C0.462403 5.38743 1.22433 3.96197 2.34315 2.84315C3.46197 1.72433 4.88743 0.962403 6.43928 0.653721C7.99113 0.34504 9.59966 0.503466 11.0615 1.10897C12.5233 1.71447 13.7727 2.73985 14.6518 4.05544C15.5308 5.37103 16 6.91775 16 8.5ZM8 15.5C8.611 15.5 8.654 15.329 8.655 15.324C8.733 15.178 8.779 14.86 8.725 14.205C8.711 14.037 8.688 13.835 8.664 13.614C8.612 13.15 8.552 12.609 8.546 12.152C8.536 11.445 8.629 10.542 9.25 9.838C9.619 9.421 10.095 9.26 10.522 9.22C10.926 9.182 11.334 9.246 11.682 9.324C12.025 9.401 12.384 9.51 12.707 9.608L12.735 9.616C13.081 9.721 13.393 9.815 13.688 9.882C14.341 10.03 14.592 9.965 14.679 9.906C14.717 9.88 15 9.661 15 8.5C15 7.11553 14.5895 5.76216 13.8203 4.61101C13.0511 3.45987 11.9579 2.56266 10.6788 2.03285C9.39971 1.50303 7.99224 1.36441 6.63437 1.63451C5.2765 1.9046 4.02922 2.57129 3.05026 3.55026C2.07129 4.52922 1.4046 5.7765 1.13451 7.13437C0.86441 8.49224 1.00303 9.89971 1.53285 11.1788C2.06266 12.4579 2.95987 13.5511 4.11101 14.3203C5.26216 15.0895 6.61553 15.5 8 15.5Z" fill="currentColor"/>
</svg>
