<svg width="16" height="16" viewBox="0 0 16 16" fill="none" xmlns="http://www.w3.org/2000/svg">
<path fill-rule="evenodd" clip-rule="evenodd" d="M14 13.5C14 13.6326 13.9473 13.7598 13.8536 13.8536C13.7598 13.9473 13.6326 14 13.5 14L7.5 14C7.36739 14 7.24021 13.9473 7.14645 13.8536C7.05268 13.7598 7 13.6326 7 13.5C7 13.3674 7.05268 13.2402 7.14645 13.1464C7.24021 13.0527 7.36739 13 7.5 13L12.293 13L2.146 2.854C2.05211 2.76011 1.99937 2.63278 1.99937 2.5C1.99937 2.36723 2.05211 2.23989 2.146 2.146C2.23989 2.05211 2.36722 1.99937 2.5 1.99937C2.63277 1.99937 2.76011 2.05211 2.854 2.146L13 12.293L13 7.5C13 7.36739 13.0527 7.24021 13.1464 7.14645C13.2402 7.05268 13.3674 7 13.5 7C13.6326 7 13.7598 7.05268 13.8536 7.14645C13.9473 7.24021 14 7.36739 14 7.5L14 13.5Z" fill="#A3E635"/>
</svg>
