<svg width="16" height="16" viewBox="0 0 16 16" fill="none" xmlns="http://www.w3.org/2000/svg">
<g clip-path="url(#clip0_57_540)">
<path fill-rule="evenodd" clip-rule="evenodd" d="M11.4999 15C11.6325 15 11.7597 14.9473 11.8535 14.8535C11.9472 14.7598 11.9999 14.6326 11.9999 14.5V2.70698L15.1459 5.85398C15.2398 5.94787 15.3671 6.00061 15.4999 6.00061C15.6327 6.00061 15.76 5.94787 15.8539 5.85398C15.9478 5.76009 16.0005 5.63275 16.0005 5.49998C16.0005 5.3672 15.9478 5.23986 15.8539 5.14598L11.8539 1.14598C11.8075 1.09942 11.7523 1.06247 11.6915 1.03727C11.6308 1.01206 11.5657 0.999084 11.4999 0.999084C11.4341 0.999084 11.369 1.01206 11.3083 1.03727C11.2475 1.06247 11.1923 1.09942 11.1459 1.14598L7.1459 5.14598C7.05201 5.23986 6.99927 5.3672 6.99927 5.49998C6.99927 5.63275 7.05201 5.76009 7.1459 5.85398C7.23979 5.94787 7.36712 6.00061 7.4999 6.00061C7.63268 6.00061 7.76001 5.94787 7.8539 5.85398L10.9999 2.70698V14.5C10.9999 14.6326 11.0526 14.7598 11.1463 14.8535C11.2401 14.9473 11.3673 15 11.4999 15ZM4.4999 0.999978C4.63251 0.999978 4.75968 1.05266 4.85345 1.14642C4.94722 1.24019 4.9999 1.36737 4.9999 1.49998V13.293L8.1459 10.146C8.23979 10.0521 8.36712 9.99935 8.4999 9.99935C8.63267 9.99935 8.76001 10.0521 8.8539 10.146C8.94779 10.2399 9.00053 10.3672 9.00053 10.5C9.00053 10.6328 8.94779 10.7601 8.8539 10.854L4.8539 14.854C4.80745 14.9005 4.75228 14.9375 4.69153 14.9627C4.63079 14.9879 4.56567 15.0009 4.4999 15.0009C4.43413 15.0009 4.36901 14.9879 4.30827 14.9627C4.24752 14.9375 4.19235 14.9005 4.1459 14.854L0.145899 10.854C0.0520125 10.7601 -0.000732425 10.6328 -0.000732422 10.5C-0.000732419 10.3672 0.0520125 10.2399 0.145899 10.146C0.239786 10.0521 0.367123 9.99935 0.499899 9.99935C0.632675 9.99935 0.760013 10.0521 0.853899 10.146L3.9999 13.293V1.49998C3.9999 1.36737 4.05258 1.24019 4.14635 1.14642C4.24011 1.05266 4.36729 0.999978 4.4999 0.999978Z" fill="#F87171"/>
</g>
<defs>
<clipPath id="clip0_57_540">
<rect width="16" height="16" fill="white"/>
</clipPath>
</defs>
</svg>
