<svg width="8" height="9" viewBox="0 0 8 9" fill="none" xmlns="http://www.w3.org/2000/svg">
  <path d="M3.62351 2.93001L1.22551 5.67051C0.942505 5.99401 1.17251 6.50001 1.60201 6.50001H6.39801C6.49413 6.50009 6.58824 6.47247 6.66906 6.42044C6.74989 6.36841 6.814 6.29419 6.85373 6.20666C6.89346 6.11914 6.90711 6.02201 6.89306 5.92692C6.87901 5.83183 6.83785 5.74281 6.77451 5.67051L4.37651 2.93051C4.32957 2.87681 4.2717 2.83376 4.20676 2.80427C4.14182 2.77478 4.07133 2.75952 4.00001 2.75952C3.92868 2.75952 3.85819 2.77478 3.79325 2.80427C3.72831 2.83376 3.67044 2.87631 3.62351 2.93001Z" fill="currentColor"/>
</svg>
