<svg width="8" height="9" viewBox="0 0 8 9" fill="none" xmlns="http://www.w3.org/2000/svg">
  <path d="M4.37576 6.32951L6.77376 3.58901C7.05676 3.26551 6.82676 2.75951 6.39726 2.75951L1.60126 2.75951C1.50514 2.75943 1.41103 2.78705 1.33021 2.83908C1.24938 2.89111 1.18527 2.96533 1.14554 3.05286C1.10581 3.14039 1.09215 3.23751 1.1062 3.3326C1.12025 3.42769 1.16142 3.51671 1.22476 3.58901L3.62276 6.32901C3.66969 6.38272 3.72757 6.42576 3.79251 6.45525C3.85745 6.48474 3.92794 6.5 3.99926 6.5C4.07058 6.5 4.14108 6.48474 4.20602 6.45525C4.27095 6.42576 4.32883 6.38322 4.37576 6.32951Z" fill="#F87171"/>
</svg>
