<svg width="30" height="30" viewBox="0 0 30 30" fill="none" xmlns="http://www.w3.org/2000/svg">
<path fill-rule="evenodd" clip-rule="evenodd" d="M3.57495 23.2025L5.79745 23.155L6.04745 15.3275L4.57495 13.6425L10.5 13.695L9.47995 15.3275L10.205 23.0625L12.955 23.005L13.42 15.3275L12.03 13.7075L18.0825 13.76L16.865 15.3275L17.5 22.9075L20.5774 22.8425L20.805 15.3275L19.4725 13.7725L25.325 13.825L24.25 15.325L24.905 22.75L26.9575 22.7075V25.905L4.06995 26.155L3.57495 23.2025ZM3.57495 12.62L3.32495 11.145L14.65 4.5L26.7075 10.6525L26.4575 12.375L3.57495 12.62ZM14.75 7.4525C12.6975 7.4525 12.5225 10.6525 14.895 10.6525C16.9025 10.6525 16.85 7.4525 14.75 7.4525Z" fill="url(#paint0_linear_17_176)"/>
<defs>
<linearGradient id="paint0_linear_17_176" x1="15.1412" y1="4.5" x2="15.1412" y2="26.155" gradientUnits="userSpaceOnUse">
<stop stop-color="#FACC15"/>
<stop offset="1" stop-color="#475569"/>
</linearGradient>
</defs>
</svg>
