<svg width="30" height="30" viewBox="0 0 30 30" fill="none" xmlns="http://www.w3.org/2000/svg">
<path fill-rule="evenodd" clip-rule="evenodd" d="M25 12.4525L25.025 18.815L23.6175 18.83L23.4725 12.49L21.855 12.53L21.75 6.4925L23.3475 6.465L23.3175 5.1H24.9875V6.435L26.6375 6.405L26.58 12.405L25 12.4525ZM18.82 15.0775L18.95 23.4325L17.26 23.495L17.1725 15.14L15.7475 15.195L15.605 4.9075L17.065 4.88V3.815L18.6725 3.75L18.6875 4.8525L20.4375 4.8225L20.2775 15.02L18.82 15.0775ZM16.9675 6.515L17.03 13.54L19 13.4625L19.0725 6.48L16.9675 6.515ZM12.9675 26.065L11.56 26.08L11.4725 23.5125L9.79749 23.5775L9.6175 14.2425L11.16 14.2175L10.9625 8.35L12.7575 8.125L12.8275 14.1825L14.4475 14.1525L14.5025 23.4025L12.935 23.46L12.9675 26.065ZM13.0575 22.015L13.13 15.5325L11.0225 15.63L11.085 22.215L13.0575 22.015ZM8.14999 20.7L6.665 20.7575V26.2075L5.25749 26.225L5.1575 20.8175L3.62 20.8775L3.37 7.0425L4.91 7.0175L4.875 5.1L6.67 5.125V6.985L8.2025 6.9575L8.14999 20.7Z" fill="url(#paint0_linear_17_184)"/>
<defs>
<linearGradient id="paint0_linear_17_184" x1="15.0037" y1="3.75" x2="15.0037" y2="26.225" gradientUnits="userSpaceOnUse">
<stop stop-color="#F472B6"/>
<stop offset="1" stop-color="#475569"/>
</linearGradient>
</defs>
</svg>
