<svg width="30" height="30" viewBox="0 0 30 30" fill="none" xmlns="http://www.w3.org/2000/svg">
<path fill-rule="evenodd" clip-rule="evenodd" d="M5.51758 26.52L6.80258 24.13C6.80258 20.2 6.85758 17.13 6.85758 14.1C6.85758 5.265 23.2001 5.2775 23.2001 14.1C23.2001 17.04 23.2851 21.12 23.2851 24.6425L24.4826 26.8025C20.8901 28.5075 8.15008 28.2625 5.51758 26.52ZM15.5926 14.325C16.3353 14.3465 17.0507 14.6098 17.6301 15.075L18.6976 13.475C18.2901 12.915 17.3976 12.39 16.1976 12.21L16.2126 10.5625L13.9901 10.6075L14.0001 12.3475C12.5451 12.8025 11.4701 13.995 11.4251 15.255C11.3801 16.515 11.7451 17.505 13.8726 18.705C15.0201 19.3575 16.2076 19.9925 16.2076 20.785C16.2076 21.5775 15.5851 21.8475 14.6076 21.85C13.6776 21.85 12.2076 21.1 11.5701 20.68L10.7276 22.305C11.7004 23.1948 12.8991 23.8001 14.1926 24.055L14.2151 25.4375L16.0476 25.4075L16.0626 24.005C17.8751 23.6575 18.9226 22.4075 18.9226 20.565C18.9226 19.315 18.2101 18.05 16.7151 17.35C15.5626 16.8125 13.9901 16.05 13.9901 15.24C14.0001 14.715 14.5001 14.325 15.5926 14.325ZM12.8426 6.325L11.3701 4.185L13.4651 3.185L13.0401 1.5L18.4076 2.095L17.0076 6.27L12.8426 6.325Z" fill="url(#paint0_linear_17_159)"/>
<defs>
<linearGradient id="paint0_linear_17_159" x1="15.0001" y1="1.5" x2="15.0001" y2="27.9616" gradientUnits="userSpaceOnUse">
<stop stop-color="#FB923C"/>
<stop offset="1" stop-color="#475569"/>
</linearGradient>
</defs>
</svg>
