<svg width="30" height="30" viewBox="0 0 30 30" fill="none" xmlns="http://www.w3.org/2000/svg">
<path fill-rule="evenodd" clip-rule="evenodd" d="M22.2501 19.2027C22.2501 16.6477 22.2501 13.9277 22.2701 13.2802C22.2771 13.0661 22.2578 12.852 22.2126 12.6427L26.6601 11.3702C27.2626 13.0952 27.8826 14.8702 28.0626 15.4302C28.1465 15.6659 28.1824 15.916 28.1683 16.1658C28.1542 16.4156 28.0903 16.66 27.9804 16.8848C27.8704 17.1096 27.7167 17.3101 27.5282 17.4746C27.3396 17.6391 27.1201 17.7642 26.8826 17.8427C26.5126 17.9827 24.5751 18.5352 22.2501 19.2027ZM8.75007 10.7027C8.83007 10.6677 8.91257 10.6377 9.00007 10.6077C10.6276 10.0827 21.7876 6.39016 23.0751 6.08766C24.3626 5.78516 24.9951 6.25767 25.3851 7.62767C25.4276 7.77767 25.5026 8.01016 25.5976 8.30266L17.8751 10.5527C15.4826 10.5577 11.2151 10.6452 8.75007 10.6977V10.7027ZM19.3151 12.2527C20.3301 12.3352 20.8451 13.0827 20.7976 14.2527C20.7501 15.4227 20.7976 21.2327 20.7801 22.3952C20.7576 23.8152 19.9026 24.0777 18.5801 24.1202C17.2576 24.1627 6.39507 24.0752 4.68257 24.1202C2.97007 24.1652 2.71257 23.2852 2.73757 22.3702C2.76257 21.4552 2.61007 15.4502 2.64757 14.0027C2.68507 12.5552 3.53007 12.2277 4.87257 12.2527C6.21507 12.2777 18.3026 12.1652 19.3176 12.2477L19.3151 12.2527ZM12.7901 17.5327C9.67007 17.5327 9.59257 22.2827 12.5726 22.2827C16.1076 22.2902 15.8476 17.5327 12.7901 17.5327ZM15.6176 17.7677C16.5776 19.0402 16.6176 20.9077 15.5626 22.1052C15.8563 22.231 16.1731 22.294 16.4926 22.2902C20.0276 22.2902 19.7676 17.5402 16.7101 17.5402C16.3333 17.5319 15.9597 17.6097 15.6176 17.7677Z" fill="url(#paint0_linear_17_180)"/>
<defs>
<linearGradient id="paint0_linear_17_180" x1="15.4065" y1="6" x2="15.4065" y2="24.1322" gradientUnits="userSpaceOnUse">
<stop stop-color="#22D3EE"/>
<stop offset="1" stop-color="#475569"/>
</linearGradient>
</defs>
</svg>
