<svg width="30" height="30" viewBox="0 0 30 30" fill="none" xmlns="http://www.w3.org/2000/svg">
<path fill-rule="evenodd" clip-rule="evenodd" d="M25.1611 23.4C25.1611 24.58 24.4111 25.4575 23.2036 25.475C19.5361 25.525 10.5786 25.6725 7.46613 25.6725C6.08113 25.6725 4.96613 25.0275 4.96613 22.855C4.96613 20.6825 4.69113 9.7875 4.51613 7.7775C4.34113 5.7675 5.60863 4.5 7.41363 4.5C10.7061 4.5 19.9386 4.5675 22.9686 4.5675C24.6886 4.5675 25.3811 5.5675 25.3811 7.2975C25.3811 9.0275 25.1611 22.22 25.1611 23.4ZM23.6186 17.6025L22.5011 17.6675L22.4761 12.6175L23.4611 12.6725V9.73L22.4611 9.7575L22.4411 6.94L7.71363 7.0325L7.67363 23.5325L22.5211 23.4225V20.6H23.6236L23.6186 17.6025ZM9.06113 8.245L21.0611 8.21L21.1661 22.21H9.03363L9.06113 8.245ZM11.4786 19.1175L13.5536 17.6175C14.0513 17.9028 14.6176 18.0463 15.1911 18.0325C15.5714 18.0372 15.9488 17.9658 16.3011 17.8225L18.0011 19.4975L18.9411 18.665L17.4586 16.8275C17.7101 16.4064 17.8597 15.9323 17.8953 15.4431C17.9309 14.9538 17.8515 14.4631 17.6636 14.01L19.5011 12.215L18.6761 11.2625L16.6911 12.8125C16.2223 12.5201 15.6785 12.3707 15.1261 12.3825C14.6824 12.3775 14.2429 12.4696 13.8386 12.6525L12.0036 10.835L11.0736 11.71L12.6511 13.755C12.4262 14.1586 12.2963 14.6082 12.2711 15.0695C12.246 15.5309 12.3264 15.9919 12.5061 16.4175L10.7561 18.1125L11.4786 19.1175ZM15.1061 13.73C17.0511 13.73 17.0386 16.68 15.1386 16.68C13.0611 16.68 13.1561 13.73 15.1061 13.73Z" fill="url(#paint0_linear_16_131)"/>
<defs>
<linearGradient id="paint0_linear_16_131" x1="14.9406" y1="4.5" x2="14.9406" y2="25.6725" gradientUnits="userSpaceOnUse">
<stop stop-color="#F87171"/>
<stop offset="1" stop-color="#475569"/>
</linearGradient>
</defs>
</svg>
