<svg width="30" height="30" viewBox="0 0 30 30" fill="none" xmlns="http://www.w3.org/2000/svg">
<path fill-rule="evenodd" clip-rule="evenodd" d="M21.0825 11.915C21.6007 11.1224 22.0691 10.2983 22.485 9.4475C22.485 9.4475 18.85 7.805 17.315 6.9825C16.7 9.135 15.565 10.525 14.4325 11.81L12.315 11.87C13.815 10.1475 15.5225 8.37 16.6125 4.5C16.6125 4.5 22.3625 7.6025 24.3925 8.735C24.18 10.02 23.29 11.715 22.37 12.9325L21.0825 11.915ZM12.1825 6.885C12.2425 8.8375 11.7325 10.4225 11.1275 11.9L9.4125 11.9475C10.4585 9.79108 10.9459 7.40641 10.83 5.0125L14.8575 5.5125L14.2225 7.0125C14.2225 7.0125 12.37 6.9175 12.1825 6.885ZM7.365 9.0125C7.60659 9.98532 7.69099 10.9905 7.615 11.99L6.065 12.04C6.16594 10.4679 6.01058 8.88977 5.605 7.3675L9.48 7.0475L9.29 8.715C9.29 8.715 7.565 9.0125 7.365 9.0125ZM21.66 15.395C21.66 15.5375 21.66 15.73 21.66 15.9625C20.285 16.0075 18.375 16.0625 16.4525 16.0875C15.2625 16.105 14.27 17.2175 14.27 18.385C14.27 18.735 14.27 19.845 14.27 20.0725C14.27 21.77 15.2975 22.97 17 22.97C18.5 22.97 20.21 22.985 21.535 23.0025C21.535 23.6325 21.5175 24.11 21.5175 24.3225C21.5175 25.295 20.8925 26.02 19.9025 26.0325C16.88 26.0725 5.4225 26.1975 5.4225 26.1975L5.25 13.3575C5.25 13.3575 17.1725 13.145 19.67 13.145C21.0875 13.1525 21.66 13.9875 21.66 15.4025V15.395ZM15.66 19.7925C15.66 19.6325 15.66 19.105 15.66 18.8575C15.66 18.03 16.19 17.4125 17.035 17.4025C19.605 17.3675 22.48 17.4175 22.48 17.4175L22.56 21.5225C22.56 21.5225 19.48 21.7075 17.3575 21.7075C16.145 21.715 15.66 21.0125 15.66 19.8V19.7925Z" fill="url(#paint0_linear_17_182)"/>
<defs>
<linearGradient id="paint0_linear_17_182" x1="14.8212" y1="4.5" x2="14.8212" y2="26.1975" gradientUnits="userSpaceOnUse">
<stop stop-color="#E879F9"/>
<stop offset="1" stop-color="#475569"/>
</linearGradient>
</defs>
</svg>
