<svg width="30" height="30" viewBox="0 0 30 30" fill="none" xmlns="http://www.w3.org/2000/svg">
<path fill-rule="evenodd" clip-rule="evenodd" d="M18.9775 17.375C17.5875 17.375 17.025 16.555 17.025 15.1675C17.025 14.9825 17.025 14.375 17.025 14.0875C17.025 13.135 17.635 12.425 18.6075 12.41C21.57 12.37 24.8875 12.43 24.8875 12.43L24.98 17.1625C24.98 17.1625 21.4275 17.375 18.9775 17.375ZM18.035 11.0275C16.71 11.045 15.605 12.2775 15.605 13.5875C15.605 13.9775 15.605 15.2125 15.605 15.465C15.605 17.3575 16.75 18.6925 18.645 18.6925C20.3625 18.6925 22.3075 18.7125 23.7975 18.7325C23.7825 19.525 23.7725 20.13 23.7725 20.39C23.7725 21.51 23.055 22.345 21.9125 22.3625C18.4275 22.41 5.21996 22.55 5.21996 22.55L5.01746 7.75C5.01746 7.75 18.7675 7.5 21.645 7.5C23.28 7.5 23.94 8.4625 23.94 10.095C23.94 10.2825 23.94 10.555 23.94 10.8825C22.4 10.9375 20.2225 10.9975 18.035 11.0275Z" fill="url(#paint0_linear_17_178)"/>
<defs>
<linearGradient id="paint0_linear_17_178" x1="14.9987" y1="7.5" x2="14.9987" y2="22.55" gradientUnits="userSpaceOnUse">
<stop stop-color="#A3E635"/>
<stop offset="1" stop-color="#475569"/>
</linearGradient>
</defs>
</svg>
