<svg width="40" height="40" viewBox="0 0 40 40" fill="none" xmlns="http://www.w3.org/2000/svg">
<path d="M9.04074 36.647C9.63114 36.5158 10.8172 36.7218 11.464 36.7612C12.1847 36.8041 12.906 36.8205 13.628 36.8106C17.0644 36.7542 20.6142 35.9981 23.9045 35.037C27.3699 34.0248 30.9868 32.523 34.1641 30.8064C34.8384 30.4422 35.4965 30.0653 36.1434 29.6541C36.606 29.3602 37.5607 28.6011 38.0333 28.4519C38.0626 28.4427 38.0921 28.4349 38.1215 28.4263C35.9364 33.2009 31.7226 36.9173 26.8213 38.748C21.8338 40.6108 16.6015 40.3781 11.7641 38.1622C10.8684 37.7519 9.80878 37.2639 9.04074 36.647Z" fill="#C81064"/>
<path d="M0.958384 13.9109C1.05245 13.6101 1.15363 13.3117 1.26193 13.0157C1.37028 12.7197 1.48566 12.4265 1.60806 12.136C1.73052 11.8455 1.85982 11.5582 1.99595 11.2739C2.13214 10.9896 2.27507 10.7087 2.42475 10.4312C2.57442 10.1538 2.73066 9.88007 2.89344 9.61007C3.05616 9.34008 3.22531 9.07411 3.4009 8.81218C3.57642 8.55032 3.75812 8.2928 3.94601 8.03962C4.13383 7.78638 4.32765 7.53779 4.52747 7.29386C7.93653 3.19273 12.6972 0.574468 18.0376 0.0916597C18.2804 0.0685758 18.5236 0.0498352 18.7671 0.0354388C19.0106 0.0211044 19.2543 0.0111146 19.4981 0.0054677C19.7419 -0.000179184 19.9858 -0.00145274 20.2297 0.00164994C20.4736 0.00475263 20.7174 0.0122298 20.961 0.0240821C21.2047 0.0359343 21.448 0.0521306 21.691 0.0726704C21.934 0.0932722 22.1767 0.118188 22.4188 0.147415C22.661 0.176704 22.9025 0.210307 23.1434 0.248222C23.3844 0.286199 23.6246 0.328457 23.864 0.374997C24.1034 0.421538 24.3419 0.472328 24.5795 0.527369C24.8171 0.582473 25.0536 0.641827 25.289 0.705432C25.5245 0.768975 25.7588 0.836737 25.9918 0.908719C26.2248 0.980701 26.4565 1.05684 26.6868 1.13714C26.9171 1.21744 27.1458 1.30183 27.3731 1.39032C27.6004 1.47874 27.826 1.57127 28.0499 1.66788C28.2738 1.76444 28.496 1.865 28.7163 1.96956C28.9366 2.07406 29.155 2.1825 29.3714 2.29488C30.06 2.65426 30.8208 3.05162 31.4183 3.54941C31.1178 3.54616 30.5468 3.0801 30.2787 2.912C29.4785 3.8347 28.43 4.64274 27.5142 5.45012C26.104 6.69321 24.6402 7.89301 23.0655 8.92388C22.7776 9.10948 22.4869 9.29059 22.1933 9.46719C21.8998 9.64386 21.6036 9.81593 21.3048 9.98342C21.006 10.151 20.7046 10.3139 20.4007 10.4721C20.0969 10.6303 19.7906 10.7838 19.482 10.9326C19.1734 11.0815 18.8626 11.2255 18.5496 11.3647C18.2365 11.504 17.9214 11.6384 17.6042 11.7679C17.287 11.8974 16.9679 12.0221 16.6469 12.1418C16.3258 12.2615 16.003 12.3762 15.6783 12.486C15.3538 12.5958 15.0276 12.7005 14.6998 12.8002C14.372 12.8999 14.0427 12.9946 13.712 13.0842C13.3812 13.1738 13.0491 13.2583 12.7158 13.3377C12.3824 13.417 12.048 13.4912 11.7123 13.5603C11.3767 13.6294 11.0401 13.6933 10.7024 13.752C10.3648 13.8107 10.0264 13.8642 9.68715 13.9124C9.34785 13.9607 9.00793 14.0037 8.66739 14.0415C8.32678 14.0794 7.98568 14.112 7.64408 14.1393C6.23429 14.2393 2.15783 14.2916 0.958384 13.9109Z" fill="url(#paint0_linear_327_501)"/>
<path d="M38.9537 13.6154C39.7407 15.6112 40.009 18.0984 39.9998 20.2325C39.9761 23.2048 39.3167 25.7178 38.1215 28.4263C38.0921 28.4349 38.0626 28.4427 38.0333 28.4519C37.5607 28.6011 36.606 29.3602 36.1434 29.6541C35.4965 30.0653 34.8384 30.4422 34.1641 30.8064C30.9868 32.523 27.3699 34.0248 23.9045 35.037C20.6142 35.9981 17.0644 36.7542 13.628 36.8106C12.906 36.8205 12.1847 36.8041 11.464 36.7612C10.8172 36.7218 9.63114 36.5158 9.04074 36.647C8.60728 36.425 8.19721 36.0997 7.81184 35.8012C7.41923 35.5003 7.03814 35.1855 6.66858 34.8568C6.29896 34.5282 5.94183 34.1865 5.59719 33.8318C5.25254 33.4771 4.92129 33.1104 4.60342 32.7315C4.28556 32.3527 3.98195 31.9628 3.69261 31.5619C3.32112 31.1381 3.02792 30.6074 2.75085 30.1171C1.89604 28.6045 1.22595 27.0939 0.742444 25.4253C3.00481 26.0899 5.93605 26.2588 8.28528 26.2129C8.55232 26.2063 8.8193 26.1973 9.08622 26.186C9.35313 26.1747 9.61989 26.161 9.8865 26.1449C10.1532 26.1289 10.4197 26.1105 10.686 26.0897C10.9523 26.069 11.2184 26.0459 11.4844 26.0204C11.7503 25.995 12.016 25.9672 12.2814 25.937C12.5468 25.9069 12.812 25.8744 13.0768 25.8396C13.3417 25.8048 13.6062 25.7676 13.8704 25.7282C14.1346 25.6886 14.3984 25.6468 14.6618 25.6027C14.9253 25.5585 15.1884 25.512 15.451 25.4633C15.7137 25.4145 15.9758 25.3634 16.2375 25.31C16.4993 25.2565 16.7605 25.2008 17.0212 25.1428C17.282 25.0848 17.5422 25.0244 17.8019 24.9618C18.0616 24.8992 18.3207 24.8343 18.5792 24.7671C18.8377 24.6999 19.0956 24.6304 19.3529 24.5587C19.6102 24.487 19.8668 24.413 20.1228 24.3367C20.3789 24.2604 20.6342 24.1819 20.8887 24.1011C21.1433 24.0203 21.3972 23.9373 21.6503 23.852C21.9035 23.7668 22.1558 23.6793 22.4074 23.5895C22.659 23.4998 22.9098 23.4079 23.1597 23.3137C23.4096 23.2196 23.6587 23.1233 23.907 23.0247C24.1553 22.9262 24.4026 22.8255 24.6491 22.7225C24.8955 22.6196 25.1411 22.5146 25.3857 22.4073C25.6303 22.3 25.8739 22.1906 26.1166 22.0791C26.3593 21.9676 26.601 21.8539 26.8416 21.7381C27.0823 21.6223 27.3219 21.5044 27.5604 21.3843C27.799 21.2643 28.0365 21.1422 28.2729 21.0179C28.5093 20.8937 28.7446 20.7674 28.9788 20.639C29.213 20.5106 29.446 20.3802 29.6779 20.2477C29.9098 20.1152 30.1405 19.9807 30.37 19.8441C30.5994 19.7075 30.8277 19.5689 31.0547 19.4283C31.2817 19.2877 31.5075 19.1451 31.7321 19.0006C31.9565 18.856 32.1797 18.7094 32.4017 18.5609C33.967 17.521 35.4774 16.407 36.9331 15.2188C37.2922 14.9261 38.5588 13.7546 38.8776 13.6404C38.9027 13.6313 38.9284 13.6237 38.9537 13.6154Z" fill="#FE4075"/>
<path d="M30.2787 2.912C30.5468 3.0801 31.1178 3.54616 31.4183 3.54941C32.7015 4.19595 34.9335 6.50286 35.783 7.67735C37.129 9.50396 38.249 11.4487 38.9537 13.6154C38.9284 13.6237 38.9027 13.6313 38.8776 13.6404C38.5588 13.7546 37.2922 14.9261 36.9331 15.2188C35.4774 16.407 33.967 17.521 32.4017 18.5609C32.1797 18.7094 31.9565 18.856 31.7321 19.0006C31.5075 19.1451 31.2817 19.2877 31.0547 19.4283C30.8277 19.5689 30.5994 19.7075 30.37 19.8441C30.1405 19.9807 29.9098 20.1152 29.6779 20.2477C29.446 20.3802 29.213 20.5106 28.9788 20.639C28.7446 20.7674 28.5093 20.8937 28.2729 21.0179C28.0365 21.1422 27.799 21.2643 27.5604 21.3843C27.3219 21.5044 27.0823 21.6223 26.8416 21.7381C26.601 21.8539 26.3593 21.9676 26.1166 22.0791C25.8739 22.1906 25.6303 22.3 25.3857 22.4073C25.1411 22.5146 24.8955 22.6196 24.6491 22.7225C24.4026 22.8255 24.1553 22.9262 23.907 23.0247C23.6587 23.1233 23.4096 23.2196 23.1597 23.3137C22.9098 23.4079 22.659 23.4998 22.4074 23.5895C22.1558 23.6793 21.9035 23.7668 21.6503 23.852C21.3972 23.9373 21.1433 24.0203 20.8887 24.1011C20.6342 24.1819 20.3789 24.2604 20.1228 24.3367C19.8668 24.413 19.6102 24.487 19.3529 24.5587C19.0956 24.6304 18.8377 24.6999 18.5792 24.7671C18.3207 24.8343 18.0616 24.8992 17.8019 24.9618C17.5422 25.0244 17.282 25.0848 17.0212 25.1428C16.7605 25.2008 16.4993 25.2565 16.2375 25.31C15.9758 25.3634 15.7137 25.4145 15.451 25.4633C15.1884 25.512 14.9253 25.5585 14.6618 25.6027C14.3984 25.6468 14.1346 25.6886 13.8704 25.7282C13.6062 25.7676 13.3417 25.8048 13.0768 25.8396C12.812 25.8744 12.5468 25.9069 12.2814 25.937C12.016 25.9672 11.7503 25.995 11.4844 26.0204C11.2184 26.0459 10.9523 26.069 10.686 26.0897C10.4197 26.1105 10.1532 26.1289 9.8865 26.1449C9.61989 26.161 9.35313 26.1747 9.08622 26.186C8.8193 26.1973 8.55232 26.2063 8.28528 26.2129C5.93605 26.2588 3.00481 26.0899 0.742444 25.4253C0.667638 25.1602 0.598423 24.8937 0.5348 24.6257C0.471178 24.3577 0.413177 24.0885 0.3608 23.8181C0.308424 23.5477 0.261701 23.2763 0.220632 23.004C0.179625 22.7316 0.144304 22.4586 0.114667 22.1848C0.0850303 21.9109 0.0611396 21.6366 0.0429972 21.3618C0.0248547 21.087 0.0124607 20.8119 0.00581265 20.5366C-0.000897562 20.2613 -0.0017977 19.9859 0.0031107 19.7105C0.00795696 19.4351 0.0185479 19.16 0.0348885 18.8851C0.147844 17.177 0.455771 15.548 0.958384 13.9109C2.15783 14.2916 6.23429 14.2393 7.64408 14.1393C7.98568 14.112 8.32678 14.0794 8.66739 14.0415C9.00793 14.0037 9.34785 13.9607 9.68715 13.9124C10.0264 13.8642 10.3648 13.8107 10.7024 13.752C11.0401 13.6933 11.3767 13.6294 11.7123 13.5603C12.048 13.4912 12.3824 13.417 12.7158 13.3377C13.0491 13.2583 13.3812 13.1738 13.712 13.0842C14.0427 12.9946 14.372 12.8999 14.6998 12.8002C15.0276 12.7005 15.3538 12.5958 15.6783 12.486C16.003 12.3762 16.3258 12.2615 16.6469 12.1418C16.9679 12.0221 17.287 11.8974 17.6042 11.7679C17.9214 11.6384 18.2365 11.504 18.5496 11.3647C18.8626 11.2255 19.1734 11.0815 19.482 10.9326C19.7906 10.7838 20.0969 10.6303 20.4007 10.4721C20.7046 10.3139 21.006 10.151 21.3048 9.98342C21.6036 9.81593 21.8998 9.64386 22.1933 9.46719C22.4869 9.29059 22.7776 9.10948 23.0655 8.92388C24.6402 7.89301 26.104 6.69321 27.5142 5.45012C28.43 4.64274 29.4785 3.8347 30.2787 2.912Z" fill="url(#paint1_linear_327_501)"/>
<path d="M30.2787 2.912C30.5468 3.0801 31.1178 3.54616 31.4183 3.54941C32.7015 4.19595 34.9335 6.50286 35.783 7.67735C35.4543 8.22699 34.1213 9.303 33.5741 9.78031C33.2721 10.048 32.9663 10.3112 32.6565 10.5698C32.3468 10.8285 32.0332 11.0824 31.7159 11.3318C31.3986 11.5812 31.0777 11.8258 30.7532 12.0657C30.4287 12.3056 30.1007 12.5407 29.7691 12.7709C29.4377 13.0011 29.1028 13.2264 28.7646 13.4467C28.4265 13.667 28.0851 13.8822 27.7406 14.0925C27.3961 14.3027 27.0485 14.5078 26.6979 14.7078C26.3473 14.9077 25.9938 15.1025 25.6374 15.292C25.281 15.4815 24.9219 15.6657 24.56 15.8446C24.1982 16.0235 23.8338 16.197 23.4668 16.3652C23.0998 16.5333 22.7304 16.696 22.3586 16.8532C21.9868 17.0105 21.6128 17.1622 21.2365 17.3084C20.8602 17.4545 20.4818 17.5951 20.1014 17.7301C19.721 17.8651 19.3386 17.9944 18.9543 18.1182C18.57 18.2419 18.184 18.3599 17.7962 18.4722C17.4084 18.5845 17.019 18.691 16.6281 18.7918C12.1189 19.9286 7.47828 20.2867 2.86576 19.6181C1.99026 19.4912 0.938345 19.3674 0.120538 19.0318C0.0772947 18.9782 0.0597722 18.9515 0.0348885 18.8851C0.147844 17.177 0.455771 15.548 0.958384 13.9109C2.15783 14.2916 6.23429 14.2393 7.64408 14.1393C7.98568 14.112 8.32678 14.0794 8.66739 14.0415C9.00793 14.0037 9.34785 13.9607 9.68715 13.9124C10.0264 13.8642 10.3648 13.8107 10.7024 13.752C11.0401 13.6933 11.3767 13.6294 11.7123 13.5603C12.048 13.4912 12.3824 13.417 12.7158 13.3377C13.0491 13.2583 13.3812 13.1738 13.712 13.0842C14.0427 12.9946 14.372 12.8999 14.6998 12.8002C15.0276 12.7005 15.3538 12.5958 15.6783 12.486C16.003 12.3762 16.3258 12.2615 16.6469 12.1418C16.9679 12.0221 17.287 11.8974 17.6042 11.7679C17.9214 11.6384 18.2365 11.504 18.5496 11.3647C18.8626 11.2255 19.1734 11.0815 19.482 10.9326C19.7906 10.7838 20.0969 10.6303 20.4007 10.4721C20.7046 10.3139 21.006 10.151 21.3048 9.98342C21.6036 9.81593 21.8998 9.64386 22.1933 9.46719C22.4869 9.29059 22.7776 9.10948 23.0655 8.92388C24.6402 7.89301 26.104 6.69321 27.5142 5.45012C28.43 4.64274 29.4785 3.8347 30.2787 2.912Z" fill="#FE7150"/>
<defs>
<linearGradient id="paint0_linear_327_501" x1="20.2822" y1="35.3301" x2="8.05469" y2="6.14624" gradientUnits="userSpaceOnUse">
<stop stop-color="#FC7A64"/>
<stop offset="1" stop-color="#F8AB68"/>
</linearGradient>
<linearGradient id="paint1_linear_327_501" x1="21.3775" y1="36.5879" x2="14.1279" y2="16.7251" gradientUnits="userSpaceOnUse">
<stop stop-color="#FE566B"/>
<stop offset="1" stop-color="#FB766C"/>
</linearGradient>
</defs>
</svg>
